<svg xmlns="http://www.w3.org/2000/svg" width="23" height="23" viewBox="0 0 23 23"><defs><clipPath id="m11na"><path fill="#fff" d="M11.5 0C17.851 0 23 5.149 23 11.5S17.85 23 11.5 23 0 17.851 0 11.5 5.149 0 11.5 0z"/></clipPath></defs><g><g><path fill="#fff" d="M11.5 0C17.851 0 23 5.149 23 11.5S17.85 23 11.5 23 0 17.851 0 11.5 5.149 0 11.5 0z"/><path fill="none" stroke="#478dda" stroke-linecap="round" stroke-linejoin="round" stroke-miterlimit="50" stroke-width="4" d="M11.5 0C17.851 0 23 5.149 23 11.5S17.85 23 11.5 23 0 17.851 0 11.5 5.149 0 11.5 0z" clip-path="url(&quot;#m11na&quot;)"/></g><g><path fill="#478dda" d="M17 8.9v7.8c0 .718-.56 1.3-1.25 1.3h-7.5C7.56 18 7 17.418 7 16.7V6.3C7 5.582 7.56 5 8.25 5h5zm-1.25.65h-3.125V6.3H8.25v10.4h7.5zm-4.25 5.149l-1.719-1.95.725-.754.994 1.027 2.237-2.327.732.916z"/></g></g></svg>