<svg xmlns="http://www.w3.org/2000/svg" width="35" height="35" viewBox="0 0 35 35"><defs><mask id="bf09b" width="2" height="2" x="-1" y="-1"><path fill="#fff" d="M4 2h27v27H4z"/><path d="M17.5 2C24.956 2 31 8.044 31 15.5S24.956 29 17.5 29 4 22.956 4 15.5 10.044 2 17.5 2z"/></mask><filter id="bf09a" width="57" height="59" x="-11" y="-13" filterUnits="userSpaceOnUse"><feOffset dy="2" in="SourceGraphic" result="FeOffset1066Out"/><feGaussianBlur in="FeOffset1066Out" result="FeGaussianBlur1067Out" stdDeviation="2 2"/></filter></defs><g><g><g filter="url(#bf09a)"><path fill="none" d="M17.5 2C24.956 2 31 8.044 31 15.5S24.956 29 17.5 29 4 22.956 4 15.5 10.044 2 17.5 2z" mask="url(&quot;#bf09b&quot;)"/><path fill="#85c762" fill-opacity=".7" d="M17.5 2C24.956 2 31 8.044 31 15.5S24.956 29 17.5 29 4 22.956 4 15.5 10.044 2 17.5 2z"/></g><path fill="#85c762" d="M17.5 2C24.956 2 31 8.044 31 15.5S24.956 29 17.5 29 4 22.956 4 15.5 10.044 2 17.5 2z"/></g><g><path fill="#fff" d="M22.879 11.076l-7.504 7.504-2.889-2.889-.996.996 3.885 3.885 8.5-8.5z"/></g></g></svg>