<svg xmlns="http://www.w3.org/2000/svg" width="20" height="20" viewBox="0 0 20 20"><g><g><path fill="#ffffff" d="M17.078 2.922c1.875 1.875 2.843 4.235 2.906 7.078-.063 2.844-1.03 5.203-2.906 7.078-1.875 1.875-4.235 2.843-7.078 2.906-2.844-.063-5.203-1.031-7.078-2.906C1.047 15.203.078 12.844.016 10c.062-2.843 1.03-5.203 2.906-7.078C4.797 1.047 7.156.078 10 .015c2.843.063 5.203 1.032 7.078 2.907zM4.328 4.328c-1.5 1.5-2.281 3.391-2.344 5.672.063 2.281.844 4.172 2.344 5.672s3.39 2.281 5.672 2.344c2.28-.063 4.172-.844 5.672-2.344s2.28-3.39 2.344-5.672c-.063-2.28-.844-4.172-2.344-5.672S12.28 2.048 10 1.984c-2.282.063-4.172.844-5.672 2.344zm10.688 3.656L10 13 4.984 7.984z"/></g></g></svg>