<svg xmlns="http://www.w3.org/2000/svg" width="60" height="60" viewBox="0 0 60 60"><g><g><path fill="#478dda" d="M27.047 41.953h5.906V48h-5.906zM51.234 8.766C56.86 14.39 59.764 21.47 59.954 30c-.19 8.532-3.095 15.61-8.72 21.234C45.61 56.86 38.53 59.764 30 59.953c-8.532-.189-15.61-3.094-21.234-8.719C3.14 45.61.234 38.532.046 30c.188-8.53 3.095-15.61 8.72-21.234C14.39 3.14 21.468.236 30 .046c8.53.19 15.61 3.095 21.234 8.72zm-4.289 38.18C51.491 42.398 53.858 36.75 54.047 30c-.19-6.75-2.556-12.397-7.102-16.945C42.397 8.509 36.75 6.142 30 5.953c-6.75.19-12.4 2.556-16.945 7.102C8.506 17.603 6.14 23.25 5.953 30c.187 6.75 2.553 12.4 7.102 16.945C17.6 51.494 23.25 53.86 30 54.047c6.75-.187 12.397-2.553 16.945-7.102zm-8.508-31.43c2.25 2.25 3.422 5.062 3.516 8.437-.376 3.47-1.876 6.071-4.5 7.805-2.626 1.736-4.126 4.148-4.5 7.242h-5.906c.373-4.5 1.874-7.475 4.5-8.93 2.623-1.452 4.124-3.491 4.5-6.117-.095-1.687-.703-3.094-1.828-4.219-1.125-1.125-2.532-1.687-4.22-1.687-1.687 0-3.093.562-4.218 1.687s-1.736 2.532-1.828 4.22h-5.906c.092-3.376 1.265-6.188 3.515-8.439 2.25-2.25 5.063-3.42 8.438-3.515 3.375.094 6.187 1.266 8.437 3.515z"/></g></g></svg>