<svg xmlns="http://www.w3.org/2000/svg" width="60" height="60" viewBox="0 0 60 60"><g><g><path fill="#ff4641" d="M46.945 46.945C51.491 42.4 53.858 36.75 54.047 30c-.19-6.75-2.556-12.397-7.102-16.945C42.397 8.508 36.75 6.142 30 5.953c-6.75.189-12.4 2.555-16.945 7.102C8.506 17.603 6.14 23.25 5.953 30c.187 6.75 2.553 12.4 7.102 16.945C17.6 51.494 23.25 53.86 30 54.047c6.75-.187 12.397-2.553 16.945-7.102zm4.29-38.18c5.624 5.626 8.53 12.705 8.718 21.235-.189 8.532-3.094 15.61-8.719 21.234C45.61 56.86 38.53 59.764 30 59.954c-8.532-.19-15.61-3.095-21.234-8.72C3.14 45.61.234 38.532.046 30c.188-8.53 3.095-15.61 8.72-21.234C14.39 3.14 21.468.236 30 .046c8.53.19 15.61 3.095 21.234 8.72zm-9.282 13.5L34.22 30l7.734 7.734-4.219 4.22L30 34.218l-7.734 7.734-4.22-4.219L25.782 30l-7.734-7.734 4.219-4.22L30 25.782l7.734-7.734z"/></g></g></svg>