<svg xmlns="http://www.w3.org/2000/svg" width="23" height="23" viewBox="0 0 23 23"><g><g><path fill="#478dda" d="M11.5 0C17.85 0 23 5.149 23 11.5S17.85 23 11.5 23 0 17.851 0 11.5 5.149 0 11.5 0z"/></g><g><path fill="#fff" d="M18.566 6.195c.282.281.422.633.422 1.055v9c0 .422-.14.773-.422 1.055a1.558 1.558 0 0 1-1.054.457H5.488a1.558 1.558 0 0 1-1.054-.457 1.432 1.432 0 0 1-.422-1.055v-9c0-.422.14-.774.422-1.055a1.561 1.561 0 0 1 1.054-.457h12.024c.422.024.773.176 1.054.457zm-1.054 2.566L11.5 12.488 5.488 8.76v7.489h12.024zM5.488 7.25L11.5 11.01l6.012-3.761z"/></g></g></svg>