<svg xmlns="http://www.w3.org/2000/svg" width="23" height="23" viewBox="0 0 23 23"><defs><clipPath id="wbn5a"><path fill="#fff" d="M11.5 0C17.85 0 23 5.149 23 11.5S17.85 23 11.5 23 0 17.85 0 11.5 5.149 0 11.5 0z"/></clipPath></defs><g><g><path fill="#478dda" d="M11.5 0C17.85 0 23 5.149 23 11.5S17.85 23 11.5 23 0 17.85 0 11.5 5.149 0 11.5 0z"/><path fill="none" stroke="#478dda" stroke-linecap="round" stroke-linejoin="round" stroke-miterlimit="50" stroke-width="4" d="M11.5 0C17.85 0 23 5.149 23 11.5S17.85 23 11.5 23 0 17.85 0 11.5 5.149 0 11.5 0z" clip-path="url(&quot;#wbn5a&quot;)"/></g><g><path fill="#fff" d="M3.871 10.75l4.184 4.183L7 15.988l-4.184-4.183zm16.383-3.762l-9 9-4.219-4.183 1.09-1.055 3.129 3.129 7.91-7.946zm-9 4.781l-1.09-1.054 4.781-4.782L16 6.988z"/></g></g></svg>