<svg xmlns="http://www.w3.org/2000/svg" width="23" height="23" viewBox="0 0 23 23"><defs><clipPath id="r03ka"><path fill="#fff" d="M11.5 0C17.85 0 23 5.149 23 11.5S17.85 23 11.5 23 0 17.851 0 11.5 5.149 0 11.5 0z"/></clipPath></defs><g><g><path fill="#478dda" d="M11.5 0C17.85 0 23 5.149 23 11.5S17.85 23 11.5 23 0 17.851 0 11.5 5.149 0 11.5 0z"/><path fill="none" stroke="#478dda" stroke-linecap="round" stroke-linejoin="round" stroke-miterlimit="50" stroke-width="4" d="M11.5 0C17.85 0 23 5.149 23 11.5S17.85 23 11.5 23 0 17.851 0 11.5 5.149 0 11.5 0z" clip-path="url(&quot;#r03ka&quot;)"/></g><g><path fill="#fff" d="M13.344 9.656H17L13.344 6zM7.344 5H14l4 4v7.656c0 .375-.13.693-.39.953-.262.26-.579.39-.954.39H7.344c-.396 0-.72-.13-.97-.39A1.324 1.324 0 0 1 6 16.656V6.343c0-.395.125-.718.375-.969.25-.25.573-.374.969-.374zM8 12a1 1 0 0 0 1 1h6a1 1 0 0 0 0-2H9a1 1 0 0 0-1 1zm0 3a1 1 0 0 0 1 1h6a1 1 0 1 0 0-2H9a1 1 0 0 0-1 1z"/></g></g></svg>