<svg xmlns="http://www.w3.org/2000/svg" width="23" height="23" viewBox="0 0 23 23"><defs><clipPath id="9zq7a"><path fill="#fff" d="M11.5 0C17.85 0 23 5.149 23 11.5S17.85 23 11.5 23 0 17.85 0 11.5 5.149 0 11.5 0z"/></clipPath></defs><g><g><path fill="#478dda" d="M11.5 0C17.85 0 23 5.149 23 11.5S17.85 23 11.5 23 0 17.85 0 11.5 5.149 0 11.5 0z"/><path fill="none" stroke="#478dda" stroke-linecap="round" stroke-linejoin="round" stroke-miterlimit="50" stroke-width="4" d="M11.5 0C17.85 0 23 5.149 23 11.5S17.85 23 11.5 23 0 17.85 0 11.5 5.149 0 11.5 0z" clip-path="url(&quot;#9zq7a&quot;)"/></g><g><path fill="#fff" d="M18.492 17.133L15.132 16 14 19.32l-2.578-5-2.422 5L7.867 16l-3.36 1.133 2.423-5C6.122 11.117 5.705 9.906 5.68 8.5c.025-1.666.586-3.047 1.68-4.14 1.093-1.094 2.473-1.654 4.14-1.68 1.666.026 3.047.586 4.14 1.68 1.094 1.093 1.654 2.474 1.68 4.14-.026 1.406-.443 2.617-1.25 3.633zM7.32 8.5l2.266 1.133-.156 2.5 2.07-1.407 2.07 1.368-.117-2.461L15.68 8.5l-2.266-1.133.156-2.46-2.07 1.366-2.07-1.406.117 2.5z"/></g></g></svg>