<svg xmlns="http://www.w3.org/2000/svg" width="23" height="23" viewBox="0 0 23 23"><defs><clipPath id="4jcua"><path fill="#fff" d="M11.5 0C17.85 0 23 5.149 23 11.5S17.85 23 11.5 23 0 17.851 0 11.5 5.149 0 11.5 0z"/></clipPath></defs><g><g><path fill="#fff" d="M11.5 0C17.85 0 23 5.149 23 11.5S17.85 23 11.5 23 0 17.851 0 11.5 5.149 0 11.5 0z"/><path fill="none" stroke="#478dda" stroke-linecap="round" stroke-linejoin="round" stroke-miterlimit="50" stroke-width="4" d="M11.5 0C17.85 0 23 5.149 23 11.5S17.85 23 11.5 23 0 17.851 0 11.5 5.149 0 11.5 0z" clip-path="url(&quot;#4jcua&quot;)"/></g><g><path fill="#478dda" d="M15.656 6c.375 0 .693.13.953.39.26.261.39.579.39.953v8.313c0 .375-.13.693-.39.953s-.578.39-.953.39H7.344c-.375 0-.693-.13-.954-.39-.26-.26-.39-.578-.39-.953V7.343c0-.374.125-.692.375-.953.25-.26.573-.39.969-.39zM8 10h3V9H8zm4 0h3V9h-3zm-4 2h3v-1H8zm4 0h3v-1h-3zm-4 2h3v-1H8zm4 0h3v-1h-3z"/></g></g></svg>