<svg xmlns="http://www.w3.org/2000/svg" width="23" height="23" viewBox="0 0 23 23"><defs><clipPath id="93iwa"><path fill="#fff" d="M11.5 0C17.851 0 23 5.149 23 11.5S17.851 23 11.5 23 0 17.851 0 11.5 5.149 0 11.5 0z"/></clipPath></defs><g><g><path fill="#fff" d="M11.5 0C17.851 0 23 5.149 23 11.5S17.851 23 11.5 23 0 17.851 0 11.5 5.149 0 11.5 0z"/><path fill="none" stroke="#478dda" stroke-linecap="round" stroke-linejoin="round" stroke-miterlimit="50" stroke-width="4" d="M11.5 0C17.851 0 23 5.149 23 11.5S17.851 23 11.5 23 0 17.851 0 11.5 5.149 0 11.5 0z" clip-path="url(&quot;#93iwa&quot;)"/></g><g><path fill="#478dda" d="M17.344 6c.375 0 .687.13.937.39.25.261.375.579.375.954V14c0 .375-.125.687-.375.937s-.562.386-.937.407H16v3.312l-2-2-2 2v-3.312H6.656a1.385 1.385 0 0 1-.937-.407A1.272 1.272 0 0 1 5.344 14V7.344c0-.396.125-.72.375-.97S6.28 6 6.656 6zM12 9.656l-2 1 2 1V14l2-1.344L16 14v-2.344l2-1-2-1V7.344l-2 1.312-2-1.312zm-5.344-1H10V7.344H6.656zm0 2.687h2V10h-2zm0 2.657H10v-1.344H6.656z"/></g></g></svg>