<svg xmlns="http://www.w3.org/2000/svg" width="15" height="15" viewBox="0 0 15 15"><g><g><path fill="#fff" d="M7.5-.125c2.129.058 3.896.79 5.303 2.197C14.209 3.478 14.94 5.246 15 7.375c-.059 2.129-.791 3.896-2.197 5.303-1.407 1.406-3.174 2.138-5.303 2.197-2.13-.059-3.897-.791-5.303-2.197C.791 11.27.06 9.504 0 7.375c.059-2.129.79-3.897 2.197-5.303C3.603.666 5.371-.067 7.5-.125zm0 1.26c-1.778.039-3.252.644-4.424 1.816C1.904 4.123 1.3 5.598 1.26 7.375c0 .762.121 1.475.366 2.138a6.21 6.21 0 0 0 1.04 1.817l8.789-8.79A6.244 6.244 0 0 0 9.639 1.5a6.154 6.154 0 0 0-2.14-.366zm0 12.48c1.777-.04 3.252-.644 4.424-1.816 1.172-1.172 1.777-2.647 1.816-4.424 0-.762-.122-1.475-.366-2.139a6.244 6.244 0 0 0-1.04-1.816l-8.79 8.789c.547.45 1.153.795 1.817 1.04a6.152 6.152 0 0 0 2.139.366z"/></g></g></svg>