<svg xmlns="http://www.w3.org/2000/svg" width="23" height="23" viewBox="0 0 23 23"><defs><clipPath id="5ktba"><path fill="#fff" d="M11.5 0C17.851 0 23 5.149 23 11.5S17.85 23 11.5 23 0 17.851 0 11.5 5.149 0 11.5 0z"/></clipPath></defs><g><g><path fill="#fff" d="M11.5 0C17.851 0 23 5.149 23 11.5S17.85 23 11.5 23 0 17.851 0 11.5 5.149 0 11.5 0z"/><path fill="none" stroke="#478dda" stroke-linecap="round" stroke-linejoin="round" stroke-miterlimit="50" stroke-width="4" d="M11.5 0C17.851 0 23 5.149 23 11.5S17.85 23 11.5 23 0 17.851 0 11.5 5.149 0 11.5 0z" clip-path="url(&quot;#5ktba&quot;)"/></g><g><path fill="#478dda" d="M13.344 9.656H17L13.344 6zM7.344 5H14l4 4v6.656c0 .375-.13.693-.39.953-.261.26-.579.39-.954.39H7.344c-.396 0-.719-.13-.969-.39A1.324 1.324 0 0 1 6 15.656V6.344c0-.396.125-.72.375-.97S6.948 5 7.344 5zm0 6v1.344h9.312V11zm0 2.656V15h6v-1.344z"/></g></g></svg>