<svg xmlns="http://www.w3.org/2000/svg" width="30" height="29" viewBox="0 0 30 29"><g><g><path fill="#fff" d="M27.023 0c.844 0 1.547.293 2.11.879.562.587.844 1.3.844 2.144V18c0 .844-.282 1.547-.844 2.11-.563.562-1.266.867-2.11.913H24v7.454l-4.5-4.5-4.5 4.5v-7.454H2.977c-.844-.046-1.547-.351-2.11-.914C.305 19.547.023 18.844.023 18V3.023c0-.89.282-1.617.844-2.18C1.43.282 2.133 0 2.977 0zM15 8.226l-4.5 2.25 4.5 2.25V18l4.5-3.023L24 18v-5.274l4.5-2.25-4.5-2.25V3.023l-4.5 2.954L15 3.023zM2.977 5.976H10.5V3.024H2.977zm0 6.047h4.5V9h-4.5zm0 5.977H10.5v-3.023H2.977z"/></g></g></svg>