<svg xmlns="http://www.w3.org/2000/svg" width="18" height="17" viewBox="0 0 18 17"><g><g><path fill="#e24954" d="M8.18 11h1.64v1.68H8.18zm0-6.68h1.64v5H8.18zm6.718-1.719c1.563 1.563 2.37 3.53 2.422 5.899-.052 2.37-.86 4.336-2.422 5.898-1.562 1.563-3.529 2.37-5.898 2.422-2.37-.052-4.336-.86-5.899-2.422C1.54 12.836.731 10.87.68 8.5.73 6.156 1.54 4.197 3.1 2.621 4.664 1.046 6.63.232 9 .18c2.37.052 4.336.859 5.898 2.421zm-1.171 10.625c1.25-1.25 1.9-2.825 1.953-4.726-.053-1.9-.703-3.477-1.953-4.727C12.477 2.523 10.9 1.873 9 1.82c-1.901.053-3.477.703-4.727 1.953C3.023 5.023 2.373 6.6 2.32 8.5c.052 1.901.703 3.477 1.953 4.726C5.523 14.476 7.1 15.128 9 15.18c1.9-.052 3.477-.703 4.727-1.954z"/></g></g></svg>