<svg xmlns="http://www.w3.org/2000/svg" width="20" height="20" viewBox="0 0 20 20"><g><g><path fill="#abafba" d="M9.016 4.984h1.968V7H9.016zm6.632 10.664c1.516-1.515 2.305-3.398 2.368-5.648-.063-2.25-.852-4.132-2.368-5.649C14.132 2.836 12.25 2.047 10 1.984c-2.25.063-4.133.852-5.648 2.367C2.835 5.868 2.047 7.75 1.984 10c.063 2.25.851 4.133 2.368 5.648C5.867 17.164 7.75 17.953 10 18.016c2.25-.063 4.132-.851 5.648-2.368zm1.43-12.726c1.875 1.875 2.843 4.235 2.906 7.078-.063 2.844-1.03 5.203-2.906 7.078-1.875 1.875-4.235 2.843-7.078 2.906-2.844-.063-5.203-1.03-7.078-2.906C1.047 15.203.078 12.844.016 10c.062-2.843 1.03-5.203 2.906-7.078C4.797 1.047 7.156.079 10 .016c2.843.063 5.203 1.03 7.078 2.906zM9.016 9.016h1.968v6H9.016z"/></g></g></svg>