<svg xmlns="http://www.w3.org/2000/svg" width="12" height="12" viewBox="0 0 12 12"><g><g><path fill="#9ea7b1" d="M5.426 2.824h1.148V4H5.426zm3.869 6.22c.884-.883 1.344-1.982 1.38-3.294-.036-1.313-.496-2.41-1.38-3.295C8.41 1.571 7.312 1.111 6 1.075c-1.313.036-2.411.496-3.295 1.38-.884.884-1.344 1.982-1.38 3.295.036 1.312.496 2.41 1.38 3.295.884.884 1.982 1.344 3.295 1.38 1.312-.036 2.41-.496 3.295-1.38zm.834-7.423c1.094 1.094 1.658 2.47 1.695 4.129-.037 1.659-.601 3.035-1.695 4.129-1.094 1.094-2.47 1.658-4.13 1.695-1.658-.037-3.034-.601-4.128-1.695C.777 8.785.212 7.409.176 5.75.212 4.091.777 2.715 1.87 1.621 2.965.527 4.341-.038 6-.074c1.659.036 3.035.601 4.129 1.695zM5.426 5.176h1.148v3.5H5.426z"/></g></g></svg>