<svg xmlns="http://www.w3.org/2000/svg" width="20" height="21" viewBox="0 0 20 21"><g><g><path fill="#85c762" d="M14.219 16.5l-4.22-2.531-4.218 2.53 1.125-4.827-3.75-3.235 4.922-.375L10 3.516l1.922 4.5 4.922.421-3.75 3.235zM9.999.516c-2.843.063-5.202 1.039-7.077 2.93C1.047 5.335.078 7.686.016 10.5c.062 2.844 1.03 5.203 2.906 7.078 1.875 1.875 4.234 2.843 7.078 2.906 2.843-.063 5.203-1.03 7.078-2.906 1.875-1.875 2.843-4.234 2.906-7.078-.063-2.843-1.03-5.203-2.906-7.078C15.203 1.547 12.843.579 10 .516z"/></g></g></svg>