<svg xmlns="http://www.w3.org/2000/svg" width="15" height="13" viewBox="0 0 15 13"><g><g><path fill="#fff" d="M11.75.25h-8.5v2.822h8.5zm.697 6.375a.676.676 0 0 1-.498-.2.676.676 0 0 1-.2-.497c0-.2.067-.366.2-.499a.676.676 0 0 1 .498-.199c.2 0 .365.067.498.2.133.132.2.298.2.498 0 .199-.067.365-.2.498a.676.676 0 0 1-.498.199zm-2.125 4.947H4.678v-3.52h5.644zm2.125-7.77H2.553c-.62 0-1.13.2-1.528.598-.398.399-.597.908-.597 1.528v4.25H3.25V13h8.5v-2.822h2.822v-4.25c0-.62-.199-1.13-.597-1.528-.399-.398-.908-.597-1.528-.597z"/></g></g></svg>