<svg xmlns="http://www.w3.org/2000/svg" width="20" height="18" viewBox="0 0 20 18"><g><g><path fill="#478dda" d="M16 0H4v3.984h12zm.984 9a.954.954 0 0 1-.703-.281.954.954 0 0 1-.281-.703c0-.282.094-.516.281-.704a.954.954 0 0 1 .703-.28c.282 0 .516.093.703.28a.954.954 0 0 1 .282.704.954.954 0 0 1-.282.703.954.954 0 0 1-.703.28zm-3 6.984H6.016v-4.968h7.968zm3-10.968H3.016c-.876 0-1.594.28-2.157.843-.562.563-.843 1.282-.843 2.157v6H4V18h12v-3.984h3.984v-6c0-.875-.28-1.594-.843-2.157-.563-.562-1.282-.843-2.157-.843z"/></g></g></svg>