<svg xmlns="http://www.w3.org/2000/svg" width="24" height="24" viewBox="0 0 24 24"><g><g><path fill="#fff" d="M8.687 0c2.458.042 4.5.886 6.125 2.531 1.625 1.647 2.458 3.698 2.5 6.156a8.775 8.775 0 0 1-.53 3.063 8 8 0 0 1-1.532 2.562l.375.375h1.062l6.625 6.625-2 2-6.625-6.625v-1.062l-.375-.375a7.973 7.973 0 0 1-2.562 1.531 8.761 8.761 0 0 1-3.063.531c-2.458-.04-4.51-.875-6.156-2.5S.041 11.146 0 8.687c.041-2.458.885-4.51 2.531-6.156C4.177.886 6.23.041 8.687 0zm0 2.687c-1.709.042-3.125.625-4.25 1.75S2.75 6.98 2.75 8.687c0 1.71.562 3.125 1.687 4.25s2.541 1.688 4.25 1.688c1.708 0 3.125-.563 4.25-1.688s1.688-2.54 1.688-4.25c0-1.708-.563-3.125-1.688-4.25s-2.542-1.708-4.25-1.75z"/></g></g></svg>