<svg xmlns="http://www.w3.org/2000/svg" width="18" height="15" viewBox="0 0 18 15"><g><g><path fill="#fff" d="M9 5c.633.024 1.16.246 1.582.668.422.422.644.95.668 1.582v.105L8.86 5zM6.346 9.904c.714.715 1.6 1.085 2.654 1.108a4.002 4.002 0 0 0 1.652-.422l-1.16-1.16c-.164.047-.328.07-.492.07-.633-.023-1.16-.246-1.582-.668-.422-.422-.645-.95-.668-1.582 0-.164.023-.328.07-.492l-1.16-1.16a4 4 0 0 0-.422 1.652c.023 1.055.392 1.94 1.108 2.654zM2.46.5L15.75 13.789l-.95.95-2.53-2.497c-1.008.422-2.098.633-3.27.633-1.898-.023-3.58-.55-5.045-1.582A9.007 9.007 0 0 1 .738 7.25c.61-1.523 1.547-2.777 2.813-3.762l-.352-.316-1.687-1.723zm3.55 1.652A8.44 8.44 0 0 1 9 1.625c1.898.024 3.58.55 5.045 1.582a9.02 9.02 0 0 1 3.217 4.043 9.148 9.148 0 0 1-2.602 3.55l-2.18-2.179c.188-.422.282-.879.282-1.371-.024-1.055-.393-1.94-1.108-2.654-.715-.715-1.6-1.084-2.654-1.108-.492.024-.95.118-1.371.281z"/></g></g></svg>