<svg xmlns="http://www.w3.org/2000/svg" width="20" height="20" viewBox="0 0 20 20"><g><g><path fill="#fff" d="M10 17.219c-1.25-.031-2.399-.336-3.445-.914A7.29 7.29 0 0 1 4 13.985c.124-1 .874-1.766 2.25-2.298 1.375-.53 2.625-.796 3.75-.796s2.375.265 3.75.796c1.375.532 2.125 1.298 2.25 2.297a7.297 7.297 0 0 1-2.555 2.32A7.394 7.394 0 0 1 10 17.22zm0-14.203c.844 0 1.547.28 2.11.843.562.563.843 1.274.843 2.133 0 .86-.281 1.57-.844 2.133-.562.562-1.265.844-2.11.844-.843 0-1.546-.282-2.108-.844-.563-.563-.844-1.273-.844-2.133 0-.859.281-1.57.844-2.133.562-.562 1.265-.843 2.109-.843zm0-3c-2.844.063-5.203 1.03-7.078 2.906C1.047 4.797.078 7.157.016 10c.062 2.844 1.03 5.203 2.906 7.078 1.875 1.875 4.234 2.843 7.078 2.906 2.843-.063 5.203-1.03 7.078-2.906 1.875-1.875 2.843-4.234 2.906-7.078-.063-2.843-1.039-5.203-2.93-7.078C15.165 1.047 12.813.079 10 .016z"/></g></g></svg>