<svg xmlns="http://www.w3.org/2000/svg" width="76" height="76" viewBox="0 0 76 76"><g><g><path fill="#eaeaea" d="M0 65.285v-54.57C0 4.808 4.808 0 10.715 0h54.57C71.192 0 76 4.808 76 10.715v54.57C76 71.192 71.192 76 65.285 76h-54.57C4.808 76 0 71.192 0 65.285zm4.75 0a5.973 5.973 0 0 0 5.965 5.965h54.57a5.973 5.973 0 0 0 5.965-5.965v-54.57a5.973 5.973 0 0 0-5.965-5.965h-54.57a5.973 5.973 0 0 0-5.965 5.965z"/></g><g><path fill="#c9c9cb" d="M24.451 20.548a6.614 6.614 0 1 1 0 13.228 6.614 6.614 0 0 1 0-13.228zm27.096 0a6.614 6.614 0 1 1 0 13.228 6.614 6.614 0 0 1 0-13.228zm-27.31 22.824l29.168 6.13-.979 4.648-29.168-6.13z"/></g></g></svg>