<?xml version="1.0" encoding="utf-8"?>
<!-- Generator: Adobe Illustrator 21.1.0, SVG Export Plug-In . SVG Version: 6.00 Build 0)  -->
<svg version="1.1" id="Layer_1" xmlns="http://www.w3.org/2000/svg" xmlns:xlink="http://www.w3.org/1999/xlink" x="0px" y="0px"
	 viewBox="0 0 32 32" style="enable-background:new 0 0 32 32;" xml:space="preserve">
<style type="text/css">
	.st0{fill:#478DDA;fill-opacity:0;}
	.st1{fill:#478DDA;}
</style>
<path id="кнопка_1_" class="st0" d="M4,1h24c1.7,0,3,1.3,3,3v24c0,1.7-1.3,3-3,3H4c-1.7,0-3-1.3-3-3V4C1,2.3,2.3,1,4,1z"/>
<path class="st1" d="M28,32H4c-2.2,0-4-1.8-4-4V4c0-2.2,1.8-4,4-4h24c2.2,0,4,1.8,4,4v24C32,30.2,30.2,32,28,32z M4,2
	C2.9,2,2,2.9,2,4v24c0,1.1,0.9,2,2,2h24c1.1,0,2-0.9,2-2V4c0-1.1-0.9-2-2-2H4z"/>
<path id="иконка" class="st1" d="M24,7c0.5,0,1,0.2,1.4,0.6C25.8,8,26,8.5,26,9v10c0,0.5-0.2,1-0.6,1.4C25,20.8,24.5,21,24,21
	h-2v5l-3-3l-3,3v-5H8c-0.5,0-1-0.2-1.4-0.6C6.2,20,6,19.5,6,19V9c0-0.5,0.2-1.1,0.6-1.5C6.9,7.2,7.5,7,8,7H24z M16,12.5L13,14l3,1.5
	V19l3-2l3,2v-3.5l3-1.5l-3-1.5V9l-3,2l-3-2V12.5z M8,11h5V9H8V11z M8,15h3v-2H8V15z M8,19h5v-2H8V19z"/>
</svg>
