<?xml version="1.0" encoding="utf-8"?>
<!-- Generator: Adobe Illustrator 21.1.0, SVG Export Plug-In . SVG Version: 6.00 Build 0)  -->
<svg version="1.1" id="Layer_1" xmlns="http://www.w3.org/2000/svg" xmlns:xlink="http://www.w3.org/1999/xlink" x="0px" y="0px"
	 viewBox="0 0 32 32" style="enable-background:new 0 0 32 32;" xml:space="preserve">
<style type="text/css">
	.st0{fill:#478DDA;fill-opacity:0;}
	.st1{fill:#478DDA;}
</style>
<path id="кнопка_1_" class="st0" d="M4,1h24c1.7,0,3,1.3,3,3v24c0,1.7-1.3,3-3,3H4c-1.7,0-3-1.3-3-3V4C1,2.3,2.3,1,4,1z"/>
<path class="st1" d="M28,32H4c-2.2,0-4-1.8-4-4V4c0-2.2,1.8-4,4-4h24c2.2,0,4,1.8,4,4v24C32,30.2,30.2,32,28,32z M4,2
	C2.9,2,2,2.9,2,4v24c0,1.1,0.9,2,2,2h24c1.1,0,2-0.9,2-2V4c0-1.1-0.9-2-2-2H4z"/>
<path id="иконка" class="st1" d="M21.9,17.4c1-1.2,1.5-2.8,1.5-4.4c0-3.9-3.1-7-7-7s-7,3.1-7,7c0,1.6,0.5,3.1,1.5,4.4l-2.9,6
	l4-1.4l1.4,4l2.9-6l3.1,6l1.4-4l4,1.4L21.9,17.4z M14.1,11.6l-0.1-3l2.5,1.7l2.5-1.6l-0.2,3l2.7,1.4l-2.7,1.4l0.1,3l-2.5-1.6
	l-2.5,1.7l0.2-3L11.4,13L14.1,11.6z"/>
</svg>
