<?xml version="1.0" encoding="utf-8"?>
<!-- Generator: Adobe Illustrator 21.1.0, SVG Export Plug-In . SVG Version: 6.00 Build 0)  -->
<svg version="1.1" id="Layer_1" xmlns="http://www.w3.org/2000/svg" xmlns:xlink="http://www.w3.org/1999/xlink" x="0px" y="0px"
	 viewBox="0 0 32 32" style="enable-background:new 0 0 32 32;" xml:space="preserve">
<style type="text/css">
	.st0{fill:#478DDA;fill-opacity:0;}
	.st1{fill:#478DDA;}
</style>
<path id="кнопка_1_" class="st0" d="M4,1h24c1.7,0,3,1.3,3,3v24c0,1.7-1.3,3-3,3H4c-1.7,0-3-1.3-3-3V4C1,2.3,2.3,1,4,1z"/>
<path class="st1" d="M28,32H4c-2.2,0-4-1.8-4-4V4c0-2.2,1.8-4,4-4h24c2.2,0,4,1.8,4,4v24C32,30.2,30.2,32,28,32z M4,2
	C2.9,2,2,2.9,2,4v24c0,1.1,0.9,2,2,2h24c1.1,0,2-0.9,2-2V4c0-1.1-0.9-2-2-2H4z"/>
<path id="иконка_1_" class="st1" d="M10,19h5v-2h-5V19z M17,19h5v-2h-5V19z M17,15h5v-2h-5V15z M10,15h5v-2h-5V15z M23,7
	c1.1,0,2,0.9,2,2c0,0,0,0,0,0v14c0,0.5-0.2,1.1-0.6,1.4C24,24.8,23.5,25,23,25H9c-0.5,0-1.1-0.2-1.4-0.6C7.2,24,7,23.5,7,23V9
	c0-0.5,0.2-1,0.6-1.4C7.9,7.2,8.5,7,9,7L23,7L23,7z"/>
</svg>
