<svg xmlns="http://www.w3.org/2000/svg" width="23" height="23" viewBox="0 0 23 23"><defs><clipPath id="xvi4a"><path fill="#fff" d="M11.5 0C17.85 0 23 5.149 23 11.5S17.851 23 11.5 23 0 17.851 0 11.5 5.149 0 11.5 0z"/></clipPath></defs><g><g><path fill="#fff" d="M11.5 0C17.85 0 23 5.149 23 11.5S17.851 23 11.5 23 0 17.851 0 11.5 5.149 0 11.5 0z"/><path fill="none" stroke="#478dda" stroke-linecap="round" stroke-linejoin="round" stroke-miterlimit="50" stroke-width="4" d="M11.5 0C17.85 0 23 5.149 23 11.5S17.851 23 11.5 23 0 17.851 0 11.5 5.149 0 11.5 0z" clip-path="url(&quot;#xvi4a&quot;)"/></g><g><path fill="#478dda" d="M9.508 5.777c-.532.531-.797 1.201-.797 2.009 0 .808.265 1.477.797 2.009.53.53 1.195.797 1.992.797.797 0 1.46-.266 1.992-.797.531-.532.797-1.2.797-2.01 0-.807-.266-1.477-.797-2.008-.531-.531-1.195-.808-1.992-.83-.797.022-1.461.299-1.992.83zm-2.026 7.106c-1.062.53-1.616 1.195-1.66 1.992v1.428h11.356v-1.428c-.045-.797-.598-1.461-1.66-1.992-1.063-.532-2.403-.808-4.018-.83-1.616.022-2.955.298-4.018.83z"/></g></g></svg>